<svg xmlns="http://www.w3.org/2000/svg" xmlns:xlink="http://www.w3.org/1999/xlink" width="1600" height="1200" viewBox="0 0 1600 1200"><defs><filter id="a" x="634" y="255" width="333" height="455" filterUnits="userSpaceOnUse"><feOffset dy="15" input="SourceAlpha"/><feGaussianBlur stdDeviation="21" result="b"/><feFlood flood-color="#a8b2c3"/><feComposite operator="in" in2="b"/><feComposite in="SourceGraphic"/></filter><filter id="c" x="574" y="698" width="453" height="128" filterUnits="userSpaceOnUse"><feOffset dy="6" input="SourceAlpha"/><feGaussianBlur stdDeviation="10" result="d"/><feFlood flood-color="#7e6cca"/><feComposite operator="in" in2="d"/><feComposite in="SourceGraphic"/></filter><filter id="e" x="527" y="8" width="546" height="184" filterUnits="userSpaceOnUse"><feOffset dy="15" input="SourceAlpha"/><feGaussianBlur stdDeviation="21" result="f"/><feFlood flood-color="#a8b2c3"/><feComposite operator="in" in2="f"/><feComposite in="SourceGraphic"/></filter><clipPath id="h"><rect width="1600" height="1200"/></clipPath></defs><g id="g" clip-path="url(#h)"><rect width="1600" height="1200" fill="#fff"/><rect width="1600" height="1200" fill="#e8ecf3"/><g transform="translate(223 303)"><g transform="translate(0 10)"><rect width="207" height="329" rx="15" fill="#fff"/><rect width="187" height="251" rx="5" transform="translate(10 10)" fill="#eeedf0"/><text transform="translate(104 303)" fill="#0c1226" font-size="22" font-family="Muli-Bold, Muli" font-weight="700" opacity="0.7"><tspan x="-47.575" y="0">#EEEDF0</tspan></text></g><g transform="translate(237 10)"><rect width="207" height="329" rx="15" fill="#fff"/><rect width="187" height="251" rx="5" transform="translate(10 10)" fill="#a1b5c1"/><text transform="translate(104 303)" fill="#0c1226" font-size="22" font-family="Muli-Bold, Muli" font-weight="700" opacity="0.7"><tspan x="-49.841" y="0">#A1B5C1</tspan></text></g><g transform="translate(474)"><g transform="matrix(1, 0, 0, 1, -697, -303)" filter="url(#a)"><rect width="207" height="329" rx="15" transform="translate(697 303)" fill="#fff"/></g><rect width="187" height="251" rx="5" transform="translate(10 10)" fill="#f9aca7"/><text transform="translate(104 303)" fill="#0c1226" font-size="22" font-family="Muli-Bold, Muli" font-weight="700"><tspan x="-49.808" y="0">#F9ACA7</tspan></text></g><g transform="translate(711 10)"><rect width="207" height="329" rx="15" fill="#fff"/><rect width="187" height="251" rx="5" transform="translate(10 10)" fill="#68747d"/><text transform="translate(104 303)" fill="#0c1226" font-size="22" font-family="Muli-Bold, Muli" font-weight="700" opacity="0.7"><tspan x="-48.048" y="0">#68747D</tspan></text></g><g transform="translate(948 10)"><rect width="207" height="329" rx="15" fill="#fff"/><rect width="187" height="251" rx="5" transform="translate(10 10)" fill="#cf365f"/><text transform="translate(104 303)" fill="#0c1226" font-size="22" font-family="Muli-Bold, Muli" font-weight="700" opacity="0.7"><tspan x="-46.585" y="0">#CF365F</tspan></text></g></g><text transform="translate(800.5 224)" fill="#0c1226" font-size="34" font-family="Muli-Bold, Muli" font-weight="700"><tspan x="-188.462" y="0">Color palette generator</tspan></text><g transform="translate(604 722)"><g transform="matrix(1, 0, 0, 1, -604, -722)" filter="url(#c)"><rect width="393" height="68" rx="5" transform="translate(604 722)" fill="#7e6cca"/></g><text transform="translate(191 41)" fill="#fff" font-size="18" font-family="Muli-Bold, Muli" font-weight="700"><tspan x="-71.82" y="0">Generate palette</tspan></text></g><text transform="translate(800 831)" fill="#0c1226" font-size="18" font-family="Muli-Regular, Muli"><tspan x="-225.729" y="0">Or just press the “Spacebar” to generate new palettes.</tspan></text><g transform="translate(576 933)"><rect width="449" height="47" rx="23.5" fill="#fff"/><text transform="translate(225 30)" fill="#0c1226" font-size="16" font-family="Muli-Regular, Muli" opacity="0.7"><tspan x="-203.608" y="0">Click to copy individual color • Press “C” to copy palette</tspan></text></g><g transform="translate(590 56)"><g transform="matrix(1, 0, 0, 1, -590, -56)" filter="url(#e)"><rect width="420" height="58" rx="29" transform="translate(590 56)" fill="#0c1226"/></g><text transform="translate(210 36)" fill="#e9e9ec" font-size="18" font-family="Muli-Regular, Muli"><tspan x="-166.977" y="0">Color </tspan><tspan y="0" font-family="Muli-Bold, Muli" font-weight="700">#F9ACA7</tspan><tspan y="0" xml:space="preserve"> copied to your clipboard</tspan></text></g></g></svg>